<svg width="24" height="24" viewBox="0 0 24 24" fill="none" xmlns="http://www.w3.org/2000/svg">
    <g clip-path="url(#clip0_2332_10093)">
        <path d="M9.829 7.762C9.688 7.762 9.547 7.717 9.429 7.629C9.202 7.459 9.108 7.165 9.193 6.895L9.82 4.884L8.235 3.594C8.022 3.413 7.944 3.118 8.041 2.856C8.137 2.594 8.387 2.419 8.667 2.419H10.668L11.376 0.432C11.472 0.173 11.722 0 12 0C12.278 0 12.528 0.173 12.625 0.434L13.333 2.421H15.334C15.614 2.421 15.864 2.596 15.96 2.859C16.056 3.122 15.977 3.417 15.763 3.598L14.186 4.883L14.838 6.87C14.927 7.139 14.837 7.435 14.612 7.608C14.387 7.781 14.078 7.793 13.841 7.639L12.005 6.443L10.2 7.651C10.088 7.726 9.958 7.764 9.829 7.764V7.762ZM13 9H11C9.619 9 8.5 10.119 8.5 11.5V21.5C8.5 22.881 9.619 24 11 24H13C14.381 24 15.5 22.881 15.5 21.5V11.5C15.5 10.119 14.381 9 13 9ZM21.5 16H20C18.619 16 17.5 17.119 17.5 18.5V21.5C17.5 22.881 18.619 24 20 24H21.5C22.881 24 24 22.881 24 21.5V18.5C24 17.119 22.881 16 21.5 16ZM4 13H2.5C1.119 13 0 14.119 0 15.5V21.5C0 22.881 1.119 24 2.5 24H4C5.381 24 6.5 22.881 6.5 21.5V15.5C6.5 14.119 5.381 13 4 13Z" fill="black"/>
    </g>
    <defs>
        <clipPath id="clip0_2332_10093">
            <rect width="24" height="24" fill="white"/>
        </clipPath>
    </defs>
</svg>
