<svg width="24" height="24" viewBox="0 0 24 24" fill="none" xmlns="http://www.w3.org/2000/svg">
    <g clip-path="url(#clip0_2332_10092)">
        <path d="M21 17H18.5C17.732 17 17.031 17.29 16.5 17.766V13C16.5 11.346 15.154 10 13.5 10H10.5C8.846 10 7.5 11.346 7.5 13V14.766C6.969 14.29 6.268 14 5.5 14H3C1.346 14 0 15.346 0 17V21C0 22.654 1.346 24 3 24H21C22.654 24 24 22.654 24 21V20C24 18.346 22.654 17 21 17ZM8.5 13C8.5 11.897 9.397 11 10.5 11H13.5C14.603 11 15.5 11.897 15.5 13V23H8.5V13ZM1 21V17C1 15.897 1.897 15 3 15H5.5C6.603 15 7.5 15.897 7.5 17V23H3C1.897 23 1 22.103 1 21ZM23 21C23 22.103 22.103 23 21 23H16.5V20C16.5 18.897 17.397 18 18.5 18H21C22.103 18 23 18.897 23 20V21ZM8.391 4.034L9.51 4.945L9.068 6.274C8.93 6.712 9.085 7.191 9.453 7.467C9.64 7.606 9.87 7.682 10.101 7.682C10.315 7.682 10.523 7.619 10.704 7.499L12.01 6.625L13.34 7.491C13.725 7.742 14.226 7.72 14.591 7.442C14.956 7.162 15.105 6.68 14.956 6.234L14.501 4.937L15.615 4.03C15.962 3.738 16.091 3.256 15.935 2.83C15.779 2.404 15.371 2.118 14.917 2.118H13.519L13.016 0.705001C12.859 0.283001 12.451 -0.000999451 12 -0.000999451C11.549 -0.000999451 11.142 0.283001 10.982 0.711001L10.481 2.117H9.083C8.631 2.117 8.222 2.402 8.067 2.825C7.91 3.249 8.037 3.732 8.39 4.032L8.391 4.034ZM9.083 3.118H10.834C11.046 3.118 11.234 2.985 11.305 2.786L11.924 1.048H12.076L12.695 2.786C12.765 2.985 12.954 3.118 13.166 3.118H14.917L14.977 3.26L13.597 4.385C13.433 4.518 13.37 4.739 13.441 4.938L14.012 6.566L13.884 6.654L12.278 5.608C12.11 5.499 11.893 5.501 11.727 5.611L10.149 6.668C10.134 6.678 10.119 6.683 10.101 6.683L10.019 6.582L10.568 4.933C10.633 4.736 10.57 4.518 10.409 4.388L9.022 3.26L9.084 3.12L9.083 3.118Z" fill="black"/>
    </g>
    <defs>
        <clipPath id="clip0_2332_10092">
            <rect width="24" height="24" fill="white"/>
        </clipPath>
    </defs>
</svg>
