<svg width="25" height="25" viewBox="0 0 25 25" fill="none" xmlns="http://www.w3.org/2000/svg">
    <g clip-path="url(#clip0_2332_10085)">
        <path d="M0.225586 19.2256C0.225586 21.9826 2.46859 24.2256 5.22559 24.2256H19.2256C21.9826 24.2256 24.2256 21.9826 24.2256 19.2256V10.2256H0.225586V19.2256ZM8.62259 15.9026H10.8696L11.4656 13.6196C11.5596 13.2576 11.8846 13.0056 12.2576 12.9986C12.6306 13.0056 12.9556 13.2576 13.0496 13.6196L13.6456 15.9026H15.8926C16.3446 15.9026 16.6236 16.2566 16.6236 16.5786C16.6236 16.9576 16.3596 17.2766 16.0576 17.4446L14.4936 18.3146L15.1876 20.2076C15.3216 20.5746 15.2006 20.9856 14.8886 21.2206C14.5696 21.4606 14.1296 21.4576 13.8136 21.2136L12.2576 20.0106L10.7016 21.2136C10.3856 21.4576 9.94559 21.4606 9.62659 21.2206C9.31459 20.9856 9.19359 20.5746 9.32759 20.2076L10.0216 18.3146L8.45759 17.4446C8.15559 17.2766 7.89159 16.9576 7.89159 16.5786C7.89159 16.2576 8.17059 15.9026 8.62259 15.9026ZM24.2256 7.22557V8.22557H0.225586V7.22557C0.225586 4.46857 2.46859 2.22557 5.22559 2.22557H6.22559V1.22557C6.22559 0.673571 6.67359 0.225571 7.22559 0.225571C7.77759 0.225571 8.22559 0.673571 8.22559 1.22557V2.22557H16.2256V1.22557C16.2256 0.673571 16.6736 0.225571 17.2256 0.225571C17.7776 0.225571 18.2256 0.673571 18.2256 1.22557V2.22557H19.2256C21.9826 2.22557 24.2256 4.46857 24.2256 7.22557Z" fill="black"/>
    </g>
    <defs>
        <clipPath id="clip0_2332_10085">
            <rect width="24" height="24" fill="white" transform="translate(0.225586 0.225571)"/>
        </clipPath>
    </defs>
</svg>
