<svg width="24" height="24" viewBox="0 0 24 24" fill="none" xmlns="http://www.w3.org/2000/svg">
    <g clip-path="url(#clip0_2332_10086)">
        <path d="M19.5 2H18V0.5C18 0.224 17.776 0 17.5 0C17.224 0 17 0.224 17 0.5V2H7V0.5C7 0.224 6.776 0 6.5 0C6.224 0 6 0.224 6 0.5V2H4.5C2.019 2 0 4.019 0 6.5V19.5C0 21.981 2.019 24 4.5 24H19.5C21.981 24 24 21.981 24 19.5V6.5C24 4.019 21.981 2 19.5 2ZM4.5 3H19.5C21.43 3 23 4.57 23 6.5V8H1V6.5C1 4.57 2.57 3 4.5 3ZM19.5 23H4.5C2.57 23 1 21.43 1 19.5V9H23V19.5C23 21.43 21.43 23 19.5 23ZM15.77 14.012H13.826L13.306 12.017C13.152 11.43 12.619 11.011 11.991 10.999C11.381 11.011 10.848 11.429 10.695 12.017L10.175 14.011H8.231C7.454 14.011 6.973 14.634 6.973 15.212C6.973 15.747 7.297 16.258 7.817 16.547L9.066 17.241L8.493 18.803C8.277 19.394 8.469 20.046 8.972 20.425C9.224 20.615 9.525 20.709 9.826 20.709C10.133 20.709 10.439 20.61 10.694 20.414L12.002 19.403L13.309 20.414C13.813 20.804 14.521 20.808 15.031 20.425C15.534 20.046 15.726 19.394 15.51 18.803L14.937 17.241L16.185 16.547C16.706 16.258 17.03 15.746 17.03 15.212C17.03 14.634 16.549 14.011 15.772 14.011L15.77 14.012ZM15.697 15.674L13.701 16.784L14.568 19.148C14.631 19.32 14.573 19.517 14.427 19.627C14.277 19.739 14.068 19.738 13.919 19.624L12 18.14L10.081 19.624C9.932 19.739 9.723 19.741 9.573 19.627C9.427 19.517 9.369 19.32 9.431 19.148L10.299 16.783L8.303 15.673C8.139 15.582 7.973 15.403 7.973 15.212C7.973 15.158 8.034 15.011 8.231 15.011H10.947L11.662 12.269C11.703 12.113 11.846 12.001 11.991 11.998C12.155 12.001 12.298 12.112 12.338 12.268L13.053 15.01H15.769C15.966 15.01 16.027 15.157 16.027 15.211C16.027 15.403 15.861 15.581 15.696 15.672L15.697 15.674Z" fill="black"/>
    </g>
    <defs>
        <clipPath id="clip0_2332_10086">
            <rect width="24" height="24" fill="white"/>
        </clipPath>
    </defs>
</svg>
