<svg width="22" height="24" viewBox="0 0 22 24" fill="none" xmlns="http://www.w3.org/2000/svg">
    <g clip-path="url(#clip0_4369_811)">
        <path d="M6.16743 0.930176H0.644531V6.83416M6.16743 23.0702H0.644531V17.1662M15.8326 0.930176H21.3555V6.83416M15.8326 23.0702H21.3555V17.1662M6.85781 6.09619C5.13189 7.94116 2.02525 18.6422 4.09634 18.6422C5.47705 18.6422 8.92891 10.5242 9.61924 10.5242C9.61924 10.5242 7.54815 14.9522 9.61924 14.9522C11 14.9522 12.3807 12.0002 13.0711 12.0002C13.0711 12.0002 12.3807 14.2142 13.7615 14.2142C15.1422 14.2142 17.2133 10.5242 21.3555 10.5242" stroke="#D0D5DD" stroke-width="2.19709" stroke-miterlimit="10" stroke-linecap="round" stroke-linejoin="round"/>
    </g>
    <defs>
        <clipPath id="clip0_4369_811">
            <rect width="22" height="23.518" fill="white" transform="translate(0 0.241211)"/>
        </clipPath>
    </defs>
</svg>
